<svg width="1200" height="320" viewBox="0 0 1200 320" fill="none" xmlns="http://www.w3.org/2000/svg">
  <defs>
    <linearGradient id="bgGradient" x1="0" y1="0" x2="1200" y2="320" gradientUnits="userSpaceOnUse">
      <stop offset="0%" stop-color="#1F2937" />
      <stop offset="50%" stop-color="#312E81" />
      <stop offset="100%" stop-color="#0EA5E9" />
    </linearGradient>
    <linearGradient id="textGradient" x1="200" y1="80" x2="1000" y2="240" gradientUnits="userSpaceOnUse">
      <stop offset="0%" stop-color="#C084FC" />
      <stop offset="50%" stop-color="#60A5FA" />
      <stop offset="100%" stop-color="#34D399" />
    </linearGradient>
    <linearGradient id="accentGradient" x1="0" y1="0" x2="0" y2="320" gradientUnits="userSpaceOnUse">
      <stop offset="0%" stop-color="#38BDF8" stop-opacity="0.9" />
      <stop offset="100%" stop-color="#14B8A6" stop-opacity="0.2" />
    </linearGradient>
    <filter id="cardShadow" x="-20" y="-20" width="1240" height="360" filterUnits="userSpaceOnUse" color-interpolation-filters="sRGB">
      <feFlood flood-opacity="0" result="BackgroundImageFix" />
      <feGaussianBlur in="SourceAlpha" stdDeviation="12" result="blur" />
      <feOffset dy="18" />
      <feColorMatrix type="matrix" values="0 0 0 0 0.043 0 0 0 0 0.153 0 0 0 0 0.322 0 0 0 0.25 0" />
      <feBlend in2="BackgroundImageFix" result="effect1_dropShadow" />
      <feBlend in="SourceGraphic" in2="effect1_dropShadow" result="shape" />
    </filter>
    <clipPath id="roundedClip">
      <rect x="40" y="28" width="1120" height="264" rx="36" ry="36" />
    </clipPath>
  </defs>

  <rect x="40" y="28" width="1120" height="264" rx="36" ry="36" fill="url(#bgGradient)" filter="url(#cardShadow)" />

  <g clip-path="url(#roundedClip)">
    <path d="M0 120 C160 40 320 40 480 120 C640 200 800 200 960 120 C1040 80 1120 60 1200 110 V320 H0 Z" fill="url(#accentGradient)" opacity="0.55" />
    <path d="M0 200 C180 130 360 140 540 210 C760 300 960 260 1200 180 V320 H0 Z" fill="#38BDF8" opacity="0.15" />
  </g>

  <g transform="translate(120, 120)">
    <text x="0" y="0" fill="url(#textGradient)" font-family="'Inter', 'Segoe UI', Roboto, sans-serif" font-size="56" font-weight="700">Ashish Rathour</text>
    <text x="0" y="68" fill="#E5E7EB" font-family="'Inter', 'Segoe UI', Roboto, sans-serif" font-size="24" font-weight="500" letter-spacing="0.08em" text-transform="uppercase">Full-stack Engineer · Design-first Developer</text>
  </g>

  <circle cx="1020" cy="96" r="46" fill="rgba(255,255,255,0.06)" />
  <circle cx="1080" cy="180" r="26" fill="rgba(255,255,255,0.12)" />
  <circle cx="980" cy="204" r="18" fill="rgba(255,255,255,0.18)" />

  <path d="M1020 72 L1048 120 L992 120 Z" fill="url(#textGradient)" opacity="0.3" />
</svg>
